<svg xmlns="http://www.w3.org/2000/svg" viewBox="0 0 101.97 98.62"><defs><style>.cls-1{fill:#585860;}.cls-2{fill:#48484f;}.cls-3{fill:#2a2a2e;}</style></defs><title>ap</title><g id="Слой_2" data-name="Слой 2"><g id="Слой_1-2" data-name="Слой 1"><g id="Слой_6" data-name="Слой 6"><path class="cls-1" d="M84.29,11.49a49.31,49.31,0,0,0-69.47,6.19h0c-.89,1.07-1.73,2.17-2.52,3.28C8.42,20,3.52,24.67,1.2,31.6-1,38.35,0,44.84,3.4,46.6A49.32,49.32,0,1,0,84.29,11.47Z"/><path class="cls-2" d="M90.49,81a49.32,49.32,0,0,1-87-29c1,12.21,7.75,21.29,18.63,30.39A49.36,49.36,0,0,0,101.42,57,49.2,49.2,0,0,1,90.49,81Z"/><g id="кратеры"><ellipse class="cls-3" cx="87.5" cy="28.76" rx="2.86" ry="8.73" transform="translate(-4.56 31.48) rotate(-19.89)"/><path class="cls-3" d="M91.2,35.85A.7.7,0,0,1,91,36c-1.48.54-5-2.71-6.61-7.24-1.55-4.23-1-8.5.23-9.43a15.38,15.38,0,0,0,.65,8.52C86.83,32.18,89.92,35.8,91.2,35.85Z"/><ellipse class="cls-3" cx="84.39" cy="73.89" rx="11.71" ry="6.04" transform="translate(-26.43 91.23) rotate(-50.1)"/><path class="cls-3" d="M79.57,84.73c-2.37,1.11-4.66,1-6.33-.36-3.57-3,0-10.44,4.15-15.4,2.54-3,6-5.33,8.52-5.95a27.34,27.34,0,0,0-7.24,5.78c-4.15,5-6.49,11.84-4.4,14.34A5,5,0,0,0,79.57,84.73Z"/><ellipse class="cls-3" cx="43.44" cy="19.66" rx="8.88" ry="15.79" transform="translate(9.2 52.85) rotate(-68.45)"/><path class="cls-3" d="M39.77,31.16C31.66,28,24.36,20.58,26.17,16a2.19,2.19,0,0,1,.47-.72C26,19.72,32.78,26.89,40.25,29.84s15.45,1.58,18.07-2a1.41,1.41,0,0,1-.13.67C56.44,33.08,47.88,34.36,39.77,31.16Z"/><ellipse class="cls-3" cx="41.44" cy="77.54" rx="5.24" ry="10.62" transform="translate(-45.9 87.6) rotate(-68.45)"/><path class="cls-3" d="M51.51,77c-4-3.88-6.77-5.62-10.94-6.87-3.19-1-7.92-.74-9.73,2.1a4.12,4.12,0,0,0-.56,3,4,4,0,0,1-.05-3.65c1.06-2.69,5.74-4.36,11.19-2.2C45.55,70.92,48.14,72.92,51.51,77Z"/><ellipse class="cls-3" cx="8.06" cy="34.92" rx="10.46" ry="3.95" transform="translate(-27.6 31.42) rotate(-71.38)"/><path class="cls-3" d="M5.44,45a1.66,1.66,0,0,1-.57-.34c2-.34,5.51-5.64,7.11-10.43s1.65-9.43.14-10.8a1.49,1.49,0,0,1,.81,0c2.06.69,2.25,5.68.43,11.14S7.44,45.7,5.44,45Z"/></g></g></g></g></svg>