<?xml version="1.0" encoding="utf-8"?>
<!-- Generator: Adobe Illustrator 23.1.0, SVG Export Plug-In . SVG Version: 6.00 Build 0)  -->
<svg version="1.1" id="Слой_1" xmlns="http://www.w3.org/2000/svg" xmlns:xlink="http://www.w3.org/1999/xlink" x="0px" y="0px"
	 viewBox="0 0 699.4 678" style="enable-background:new 0 0 699.4 678;" xml:space="preserve">
<style type="text/css">
	.st0{fill:#303036;}
	.st1{fill:#2E2E33;}
	.st2{fill:#2A2A2E;}
</style>
<title>asteroid</title>
<g>
	<g id="Слой_2-2">
		<path class="st0" d="M360.4,0c-187.2,0-339,151.8-339,339c0,9.6,0.4,19,1.2,28.4c-24.6,12.1-30,58.2-11.6,104.9
			c17.9,45.5,51.8,75.3,77.8,69.5C150.6,624.5,249.2,678,360.4,678c187.2,0,339-151.8,339-339S547.6,0,360.4,0z"/>
		<path class="st1" d="M699.4,339c0,187.2-151.8,339-339,339c-94.2,0.1-184.1-39.1-248.2-108.1C171.1,630,246.9,648,344.4,648
			c187.2,0,339-151.8,339-339c0.1-49.8-10.9-98.9-32-144C682.9,217.6,699.5,277.7,699.4,339z"/>
		<g id="кратеры">
			<ellipse transform="matrix(0.5 -0.866 0.866 0.5 175.666 425.7647)" class="st2" cx="456.6" cy="60.8" rx="19.6" ry="60"/>
			<path class="st2" d="M504.2,98c-0.1,0.6-0.4,1.2-0.7,1.7c-5.4,9.4-38.1,7.6-66.8-9c-26.8-15.5-42.6-40.6-40.4-50.7
				c4.5,9.7,18,28.8,41,42C465,98,497.3,103.4,504.2,98z"/>
			<ellipse class="st2" cx="635.9" cy="328.5" rx="41.5" ry="80.5"/>
			<path class="st2" d="M658.4,407c-7.6,16.3-20,26-35,26c-32,0-46-55-46-99.5c0-27.3,8-54.4,18.7-68.9
				c-6.7,14.3-12.7,44.4-12.7,62.4c0,44.5,18,91,40,95C640.1,425,651.6,416.2,658.4,407z"/>
			
				<ellipse transform="matrix(0.9492 -0.3148 0.3148 0.9492 -61.0078 68.2803)" class="st2" cx="180.9" cy="223" rx="108.5" ry="61"/>
			<path class="st2" d="M212.4,300c-56.9,18.9-127.9,12.1-138.5-19.8c-1-2.9-0.5-2.9-0.7-5.9c15.9,26.4,83.5,34,135.9,16.6
				c51.7-17.2,88.4-59.8,86.5-90.2c1.4,2.2,1.5,1.6,2.3,4.1C308.5,236.8,269.3,281.1,212.4,300z"/>
			<ellipse transform="matrix(0.9492 -0.3148 0.3148 0.9492 -147.432 161.2214)" class="st2" cx="425.4" cy="537" rx="73" ry="36"/>
			<path class="st2" d="M476.4,490c-38-3-60.5,0.2-88,12c-21,9-45,31-42,54c1,7,5.3,15.1,10,18c-9.5-3-13.9-11.8-16.3-19
				c-6.3-18.9,11-48.3,49.3-61C418.3,484.4,440.4,483,476.4,490z"/>
			
				<ellipse transform="matrix(0.9309 -0.3654 0.3654 0.9309 -163.9768 48.8491)" class="st2" cx="47.1" cy="457.7" rx="27.1" ry="71.7"/>
			<path class="st2" d="M92.3,524.5c-1.4,0.6-3,0.8-4.5,0.7c9.1-10.7,4.2-54-8.5-86.4c-13-33.1-32.9-57-46.9-57.6
				c1.2-1.4,2.7-2.6,4.5-3.3c13.9-5.5,36.9,20,51.4,56.9S106.2,519,92.3,524.5z"/>
		</g>
	</g>
</g>
</svg>
