<?xml version="1.0" encoding="utf-8"?>
<!-- Generator: Adobe Illustrator 23.1.0, SVG Export Plug-In . SVG Version: 6.00 Build 0)  -->
<svg version="1.1" id="Слой_1" xmlns="http://www.w3.org/2000/svg" xmlns:xlink="http://www.w3.org/1999/xlink" x="0px" y="0px"
	 viewBox="0 0 1920 1080" style="enable-background:new 0 0 1920 1080;" xml:space="preserve">
<style type="text/css">
	.st0{fill:#4DB6AC;}
	.st1{fill:#2A2A2E;}
</style>
<title>big-cube</title>
<g>
	<g id="фон">
		<rect class="st0" width="606.4" height="1078.9"/>
	</g>
	<g id="палочки">
		<polygon class="st1" points="606.4,948.4 606.4,1078.9 561.9,1078.9 561.9,1080 607.5,1080 607.5,948.4 		"/>
		<polygon class="st1" points="606.4,948.4 561.9,948.4 561.9,968.6 546.2,968.6 546.2,1008 561.9,1008 561.9,1078.9 606.4,1078.9 
					"/>
		<rect x="606.4" class="st1" width="1.1" height="194.6"/>
		<polygon class="st1" points="585.6,0 585.6,25.3 126,25.3 126,38.8 280.1,38.8 280.1,140.6 287.4,140.6 287.4,38.8 294.8,38.8 
			294.8,223.9 302.6,223.9 302.6,194.6 348.8,194.6 348.8,189 302.6,189 302.6,38.8 492.8,38.8 492.8,81.6 321.2,81.6 321.2,83.8 
			492.8,83.8 492.8,106.9 502.3,106.9 502.3,38.8 512.4,38.8 512.4,148.5 523.1,148.5 523.1,38.8 532.7,38.8 532.7,216.6 
			546.2,216.6 546.2,38.8 585.6,38.8 585.6,194.6 606.4,194.6 606.4,0 		"/>
		<rect x="432.6" y="1078.9" class="st1" width="19.1" height="1.1"/>
		<polygon class="st1" points="546.2,1063.1 546.2,1046.8 451.7,1046.8 451.7,1040.1 502.3,1040.1 502.3,1030.5 451.7,1030.5 
			451.7,907.9 552.4,907.9 552.4,903.4 451.7,903.4 451.7,898.9 544.5,898.9 544.5,894.4 451.7,894.4 451.7,889.3 527.6,889.3 
			527.6,884.8 451.7,884.8 451.7,730.7 432.6,730.7 432.6,754.9 309.4,754.9 309.4,762.2 432.6,762.2 432.6,1078.9 451.7,1078.9 
			451.7,1063.1 		"/>
		<polygon class="st1" points="205.3,899.4 217.1,899.4 217.1,848.8 228.9,848.8 228.9,929.3 240.8,929.3 240.8,848.8 257.1,848.8 
			257.1,1019.3 280.7,1019.3 280.7,1004.1 387.6,1004.1 387.6,993.4 280.7,993.4 280.7,982.7 343.1,982.7 343.1,974.8 280.7,974.8 
			280.7,848.8 309.4,848.8 309.4,830.8 374.6,830.8 374.6,816.8 309.4,816.8 309.4,785.3 189,785.3 189,534.4 228.9,534.4 
			228.9,524.8 189,524.8 189,510.2 370.7,510.2 370.7,499.5 189,499.5 189,474.2 163.1,474.2 163.1,785.3 0,785.3 0,803.8 0,830.3 
			0,848.8 205.3,848.8 		"/>
		<polygon class="st1" points="108.6,162.6 113.6,162.6 113.6,148.5 126,148.5 126,259.3 135.6,259.3 135.6,148.5 152.4,148.5 
			152.4,194.6 176.1,194.6 176.1,148.5 194.1,148.5 194.1,106.9 181.1,106.9 181.1,92.8 167.6,92.8 167.6,106.9 70.9,106.9 70.9,0 
			63.6,0 63.6,106.9 0,106.9 0,148.5 108.6,148.5 		"/>
		<rect x="100.7" y="1078.9" class="st1" width="10.1" height="1.1"/>
		<rect x="100.7" y="884.3" class="st1" width="10.1" height="194.6"/>
		<rect x="121.5" y="1078.9" class="st1" width="11.3" height="1.1"/>
		<rect x="121.5" y="1012.5" class="st1" width="11.3" height="66.4"/>
		<rect y="1078.9" class="st1" width="21.4" height="1.1"/>
		<rect y="1040.1" class="st1" width="21.4" height="38.8"/>
		<rect x="606.4" y="736.9" class="st1" width="1.1" height="63"/>
		<polygon class="st1" points="585.6,736.9 585.6,754.9 577.1,754.9 577.1,417.9 570.4,417.9 570.4,709.9 558.6,709.9 558.6,673.9 
			553.5,673.9 553.5,709.9 492.8,709.9 492.8,632.3 499.5,632.3 499.5,629.4 492.8,629.4 492.8,595.7 489.9,595.7 489.9,618.2 
			465.8,618.2 465.8,621 489.9,621 489.9,624.4 435.9,624.4 435.9,627.2 489.9,627.2 489.9,709.9 432.6,709.9 432.6,699.2 
			429.2,699.2 429.2,709.9 259.9,709.9 259.9,658.1 257.1,658.1 257.1,709.9 240.8,709.9 240.8,714.4 274.5,714.4 274.5,741.9 
			285.8,741.9 285.8,736.9 351.6,736.9 351.6,733.5 285.8,733.5 285.8,714.4 570.4,714.4 570.4,754.9 502.3,754.9 502.3,786.9 
			517.5,786.9 517.5,848.8 533.3,848.8 533.3,786.9 546.2,786.9 546.2,813.9 558.6,813.9 558.6,786.9 585.6,786.9 585.6,799.9 
			592.3,799.9 592.3,929.3 596.8,929.3 596.8,799.9 606.4,799.9 606.4,736.9 		"/>
		<polygon class="st1" points="45.6,686.3 52.9,686.3 52.9,673.9 105.8,673.9 105.8,667.1 52.9,667.1 52.9,660.9 74.3,660.9 
			74.3,655.9 52.9,655.9 52.9,475.9 86.1,475.9 86.1,469.1 52.9,469.1 52.9,460.1 152.4,460.1 152.4,451.7 52.9,451.7 52.9,441 
			370.7,441 370.7,428.6 24.2,428.6 24.2,417.9 70.9,417.9 70.9,412.9 24.2,412.9 24.2,407.3 45.6,407.3 45.6,402.2 24.2,402.2 
			24.2,313.9 174.4,313.9 174.4,308.3 24.2,308.3 24.2,263.8 17.4,263.8 17.4,428.6 0,428.6 0,441 45.6,441 		"/>
		<polygon class="st1" points="370.7,564.8 303.8,564.8 303.8,541.7 259.9,541.7 259.9,577.7 271.7,577.7 271.7,651.4 338.6,651.4 
			338.6,667.1 358.9,667.1 358.9,651.4 370.7,651.4 370.7,639 394.9,639 394.9,612.6 370.7,612.6 		"/>
		<rect x="217.1" y="1078.9" class="st1" width="114.8" height="1.1"/>
		<polygon class="st1" points="294.8,1060.3 294.8,1046.8 240.8,1046.8 240.8,1060.3 217.1,1060.3 217.1,1078.9 331.9,1078.9 
			331.9,1060.3 		"/>
		<rect x="357.2" y="884.3" class="st1" width="32.1" height="32.6"/>
		<rect x="61.9" y="722.8" class="st1" width="69.2" height="27.6"/>
		<polygon class="st1" points="52.9,942.2 69.8,942.2 69.8,910.7 52.9,910.7 52.9,890.4 0,890.4 0,971.4 52.9,971.4 		"/>
		<rect x="435.9" y="181.7" class="st1" width="56.8" height="71.4"/>
		<rect x="216.6" y="253.1" class="st1" width="34.9" height="34.9"/>
		<rect x="145.1" y="938.3" class="st1" width="60.2" height="60.2"/>
		<rect x="303.8" y="130.5" class="st1" width="17.4" height="10.1"/>
		<rect x="606.4" y="322.9" class="st1" width="1.1" height="66.4"/>
		<polygon class="st1" points="553.5,322.9 553.5,338.1 401.1,338.1 401.1,318.9 525.4,318.9 525.4,313.9 401.1,313.9 401.1,304.9 
			596.8,304.9 596.8,301.5 401.1,301.5 401.1,115.3 439.9,115.3 439.9,106.9 401.1,106.9 401.1,93.9 394.9,93.9 394.9,338.1 
			389.3,338.1 389.3,253.1 385.3,253.1 385.3,294.8 287.4,294.8 287.4,297.6 385.3,297.6 385.3,301.5 271.7,301.5 271.7,304.3 
			385.3,304.3 385.3,308.3 259.9,308.3 259.9,311.1 385.3,311.1 385.3,338.1 86.1,338.1 86.1,352.1 439.3,352.1 439.3,483.2 
			443.3,483.2 443.3,352.1 447.2,352.1 447.2,528.2 451.1,528.2 451.1,352.1 455.6,352.1 455.6,510.2 459.6,510.2 459.6,352.1 
			527.6,352.1 527.6,433.7 478.7,433.7 478.7,448.9 527.6,448.9 527.6,460.1 513,460.1 513,469.7 527.6,469.7 527.6,528.2 
			509.1,528.2 509.1,546.8 527.6,546.8 527.6,557.4 410.1,557.4 410.1,572.1 527.6,572.1 527.6,603 539.4,603 539.4,352.1 
			553.5,352.1 553.5,389.3 606.4,389.3 606.4,322.9 		"/>
		<rect x="468.6" y="824.1" class="st1" width="15.2" height="36.6"/>
	</g>
</g>
</svg>
