<svg xmlns="http://www.w3.org/2000/svg" viewBox="0 0 374 374"><defs><style>.cls-1{fill:#4db6ac;}</style></defs><title>cube1</title><g id="Слой_2" data-name="Слой 2"><g id="фон"><path class="cls-1" d="M316,309V290h58v-5H345v-7h29V236H288V218h62.13V160H215v-9H350.13v-6H302v-8h48.13V117.91H374V42.68H324.81V0H150V15h89V25H150v4h45v6H150V87H136v34h37v9H136V258H123V111H63v49H58V111H45v-9h78V87H108V26.77h-.94V0H93V42H84V0H0V61.49H28.21v73.06H0V196H93v15H76v36H67V211H63v25H54V211H0V327H39.79v47H185V322h9v52h9.28V348H204V248h12V348h5V282h7v66h79.45v26H374V309ZM341,43h10V69H341ZM266,54h36V90H266ZM31,25H54V48H31ZM158,339H71V309h87Zm29-126H172V172h15ZM210,56h11v65H210Zm46,155H228V183h28Zm27,70H260V258h23Z"/></g></g></svg>