<svg xmlns="http://www.w3.org/2000/svg" viewBox="0 0 137.56 137.58"><defs><style>.cls-1{fill:#4db6ac;}.cls-2{fill:#61dbcc;}.cls-3{fill:#42998e;}.cls-4{fill:#3c8e82;}.cls-5{fill:#47998d;}.cls-6{fill:#3c847b;}.cls-7{fill:#439b8c;}</style></defs><title>gp</title><g id="Слой_2" data-name="Слой 2"><g id="Слой_1-2" data-name="Слой 1"><g id="Слой_6" data-name="Слой 6"><circle class="cls-1" cx="68.84" cy="68.86" r="68.72"/><path class="cls-2" d="M2.75,71.12a68.49,68.49,0,0,0,22.71,51A68.72,68.72,0,0,1,112,15.33c1,.79,1.93,1.6,2.86,2.45A68.71,68.71,0,0,0,2.75,71.08Z"/><path class="cls-3" d="M137.56,68.86A68.72,68.72,0,0,1,24.72,121.55,68.72,68.72,0,0,0,107,11.67,68.66,68.66,0,0,1,137.56,68.86Z"/><ellipse class="cls-4" cx="101.51" cy="26.42" rx="5.26" ry="17.27" transform="translate(27.87 101.12) rotate(-60)"/><ellipse class="cls-4" cx="53.23" cy="111.51" rx="8.97" ry="6.66" transform="translate(-69.96 101.85) rotate(-60)"/><ellipse class="cls-5" cx="19.79" cy="84.12" rx="6.66" ry="8.97" transform="matrix(0.95, -0.31, 0.31, 0.95, -25.32, 10.41)"/><ellipse class="cls-6" cx="109.92" cy="99.9" rx="17.41" ry="4.82" transform="translate(-31.56 145.15) rotate(-60)"/><ellipse class="cls-7" cx="32.24" cy="35.13" rx="19.64" ry="5.33" transform="translate(-14.3 45.49) rotate(-60)"/><ellipse class="cls-5" cx="76.89" cy="68.82" rx="16.92" ry="19.48" transform="translate(-21.16 101) rotate(-60)"/></g></g></g></svg>