<svg xmlns="http://www.w3.org/2000/svg" viewBox="0 0 43.45 43.4"><defs><style>.cls-1{fill:#585860;}.cls-2{fill:#48484f;}.cls-3{fill:#84ffff;}</style></defs><title>ip</title><g id="Слой_2" data-name="Слой 2"><g id="Слой_1-2" data-name="Слой 1"><g id="Слой_6" data-name="Слой 6"><g id="Слой_3" data-name="Слой 3"><path class="cls-1" d="M43.45,21.66A21.74,21.74,0,0,1,21.71,43.4h-2.6l-1-.14H17.9l-.7-.14-.33-.07L16.53,43l-.21,0-.52-.14h-.13l-.28-.08-.51-.17-.33-.11-.32-.11L13.44,42l-.19-.08L13,41.81h0l-.14-.06h-.07l-.18-.09-.21-.1-.6-.3h-.1l-.25-.13L11.14,41h0L11,40.89h0l-.11-.06-.22-.13-.08-.05h0l-.21-.13h0l-.25-.15-.2-.14-.16-.1h0L9.63,40h0L9.52,40l-.16-.11-.08-.06-.19-.14L9,39.56H9l-.22-.17-.17-.13L8.25,39,8,38.8H8l-.23-.2-.26-.22c-.17-.15-.34-.3-.5-.46l-.23-.22c-.24-.23-.48-.47-.7-.71l-.23-.25-.17-.19-.09-.1-.1-.12h0l-.1-.11a1.15,1.15,0,0,0-.14-.17L5.18,36l-.39-.48-.16-.21-.51-.75c0-.07-.1-.15-.16-.22H4v0L3.8,34c-.06-.09-.13-.18-.19-.28l-.18-.27h0q-.3-.45-.57-.93A21.63,21.63,0,0,1,.7,27.23c-.1-.38-.19-.78-.27-1.17A21.79,21.79,0,0,1,2.94,10.82,22,22,0,0,1,5.52,7.26,21.71,21.71,0,0,1,17,.51c.4-.09.81-.17,1.22-.23A21.64,21.64,0,0,1,21.74,0a21.86,21.86,0,0,1,4.49.46c.62.13,1.24.29,1.85.48a21.54,21.54,0,0,1,8.21,4.64c.24.21.46.43.69.65.45.44.88.9,1.3,1.39h0l.57.7.16.2.24.32.18.25.27.39c.14.2.28.4.41.61a1.74,1.74,0,0,0,.11.18l.12.2a1.18,1.18,0,0,1,.11.19,2.39,2.39,0,0,1,.13.21l.14.25c.06.11.13.22.19.34v.1c.09.16.18.33.26.51a2.1,2.1,0,0,1,.13.26h0l.13.28.09.19.07.16.07.16v.1a2.88,2.88,0,0,1,.13.31l.07.16a1,1,0,0,0,.07.2l.12.3.06.18c.06.16.12.32.17.48a1.72,1.72,0,0,0,.07.21,1,1,0,0,0,.08.26l.06.2a1.36,1.36,0,0,0,.07.25V16l.09.31.06.27.06.24a.54.54,0,0,0,.08.34v.42l.09.46v.1a.43.43,0,0,0,0,.16v.26l.09.67v.59a1.31,1.31,0,0,1,0,.28.14.14,0,0,1,0,.09v1.3A2.1,2.1,0,0,1,43.45,21.66Z"/><path class="cls-2" d="M43.45,21.66A21.74,21.74,0,0,1,21.71,43.4h-2.6l-1-.14H17.9l-.7-.14-.33-.07L16.53,43l-.21,0-.52-.14h-.13l-.28-.08-.51-.17-.33-.11-.32-.11L13.44,42l-.19-.08L13,41.81h0l-.14-.06h-.07l-.18-.09-.21-.1-.6-.3h-.1l-.25-.13L11.14,41h0L11,40.89h0l-.11-.06-.22-.13-.08-.05h0l-.21-.13h0l-.25-.15-.2-.14-.16-.1h0L9.63,40h0L9.52,40l-.16-.11-.08-.06-.19-.14L9,39.56H9l-.22-.17-.17-.13L8.25,39,8,38.8H8l-.23-.2-.26-.22c-.17-.15-.34-.3-.5-.46l-.23-.22c-.24-.23-.48-.47-.7-.71l-.23-.25-.17-.19-.09-.1-.1-.12h0l-.1-.11a1.15,1.15,0,0,0-.14-.17L5.18,36l-.39-.48-.16-.21-.51-.75c0-.07-.1-.15-.16-.22H4v0L3.8,34c-.06-.09-.13-.18-.19-.28l-.18-.27c.23.26.46.52.7.77A21.8,21.8,0,0,0,11,39.15l.56.25A21.75,21.75,0,0,0,38.24,7.51l.57.7.16.2.24.32.18.25.27.39c.14.2.28.4.41.61a1.74,1.74,0,0,0,.11.18l.12.2a1.18,1.18,0,0,1,.11.19,2.39,2.39,0,0,1,.13.21l.14.25c.06.11.13.22.19.34v.1c.09.16.18.33.26.51a2.1,2.1,0,0,1,.13.26h0l.13.28.09.19.07.16.07.16v.1a2.88,2.88,0,0,1,.13.31l.07.16a1,1,0,0,0,.07.2l.12.3.06.18c.06.16.12.32.17.48a1.72,1.72,0,0,0,.07.21,1,1,0,0,0,.08.26l.06.2a1.36,1.36,0,0,0,.07.25v.18l.09.31.06.27.06.24a.54.54,0,0,0,.08.34v.42l.09.46V18a.43.43,0,0,0,0,.16v.26l.09.67v.59a1.31,1.31,0,0,1,0,.28v1.39A2.43,2.43,0,0,1,43.45,21.66Z"/><path class="cls-3" d="M15.37,20.12l-14.71,7C.56,26.74.47,26.34.39,26Z"/><path class="cls-3" d="M36.94,6.15l-11,12.74L36.25,5.51C36.49,5.71,36.71,5.93,36.94,6.15Z"/><path class="cls-3" d="M18.2.2l-.37,15.31L17,.51A4.86,4.86,0,0,1,18.2.2Z"/><path class="cls-3" d="M8.66,16.9,2.9,10.74A22,22,0,0,1,5.48,7.18Z"/><path class="cls-3" d="M28,.86,26.33,3.61,26.19.38C26.81.51,27.43.67,28,.86Z"/><path class="cls-3" d="M32.63,23.13l-28.54,11L4,34.19H4v0l-.16-.23c-.06-.09-.13-.18-.19-.28l-.18-.27h0q-.3-.45-.57-.93Z"/><polygon class="cls-3" points="11.74 29.66 20.03 19.43 15.37 29.16 11.74 29.66"/><polygon class="cls-3" points="34.98 8.41 37.49 29.64 34 8.41 34.98 8.41"/><polygon class="cls-3" points="18.17 1.37 26.67 11.49 17.56 1.97 18.17 1.37"/><polygon class="cls-3" points="5.78 10.87 13.38 3.2 6.88 12.79 5.78 10.87"/><polygon class="cls-3" points="20.03 28 27.56 36.9 18.59 27.99 20.03 28"/><polygon class="cls-3" points="5.78 13.41 2.9 23.13 4.96 11.49 5.78 13.41"/><polygon class="cls-3" points="10.58 6.63 15.37 16.9 9.55 7.52 10.58 6.63"/><path class="cls-3" d="M14.41,34.23l-2.88,5.1-.66,1.18-.11-.06-.22-.13-.08,0h0l-.21-.13h0l.74-1Z"/><polygon class="cls-3" points="12.9 36.9 23.45 38.2 12.46 37.69 12.9 36.9"/></g></g></g></g></svg>