<svg xmlns="http://www.w3.org/2000/svg" viewBox="0 0 395.88 656"><defs><style>.cls-1{fill:#4db6ac;}.cls-2{fill:#4fc3f7;}.cls-3{fill:#2a2a2e;}</style></defs><title>logo</title><g id="Слой_2" data-name="Слой 2"><g id="Слой_7" data-name="Слой 7"><polygon class="cls-1" points="286 222 142.38 597 0 597 0 53 133.63 53 286 222"/><polygon class="cls-2" points="395.88 203.79 222.69 656 51 656 51 638.86 174.86 638.86 339 210.29 164.86 17.14 51 17.14 51 0 212.14 0 395.88 203.79"/><polygon class="cls-3" points="96 481 0 513.96 0 455.44 96 481"/><polygon class="cls-3" points="193.45 191.06 119.42 167.59 70.7 227.35 110.63 278.64 171.76 274.14 193.45 191.06"/><polygon class="cls-2" points="145.04 223.1 137.07 234 129.11 222.9 137.07 212 145.04 223.1"/></g></g></svg>