<svg xmlns="http://www.w3.org/2000/svg" viewBox="0 0 1690.88 935"><defs><style>.cls-1{fill:#4fc3f7;}.cls-2{fill:#4db6ac;}.cls-3{fill:#2a2a2e;}</style></defs><title>Ресурс 5</title><g id="Слой_2" data-name="Слой 2"><g id="Слой_14" data-name="Слой 14"><polygon class="cls-1" points="1690.88 203.79 1517.69 656 1346 656 1346 638.86 1469.86 638.86 1634 210.29 1459.86 17.14 1346 17.14 1346 0 1507.14 0 1690.88 203.79"/><polygon class="cls-2" points="695.07 457 703.04 468.1 695.07 479 687.11 467.9 695.07 457"/><path class="cls-2" d="M804,323H775v29h-8V323H751v44h-8V323H726v59h-8V323H700v15h-8V323H670.37L518,492l14.17,37H568v5H534.09l4.21,11H584v5H540.21l4.22,11H593v25H554l9.58,25H607v5H565.49l51.32,134H639v5H618.73l5.36,14H654v5H626l4.22,11H662v13H635.19l26.43,69H804V769L708,743.4l96-33ZM729.76,519.14l-61.13,4.5L628.7,472.35l48.71-59.76,74,23.47Z"/><polygon class="cls-3" points="703.04 468.1 695.07 479 687.11 467.9 695.07 457 703.04 468.1"/><polygon class="cls-1" points="703.04 468.1 695.07 479 687.11 467.9 695.07 457 703.04 468.1"/><path class="cls-2" d="M594,222.32l-54.59-11.74,35-24.58H460.37L317.27,344.71,365,374H315.28L434.13,684.32l13.46-9.9-8.89,21.85,7.1,18.53,31.79-23.38L461.89,730h20.87l19.83-14.58L496.66,730H578L540.2,631.36l-56.2-15,44.61-15.32L483,482,594,358.89ZM406.11,397l86.46-155.11L555,349.42Z"/><polygon class="cls-1" points="497.04 323.1 489.07 334 481.11 322.9 489.07 312 497.04 323.1"/><path class="cls-2" d="M269.07,171l-8,10.9,8,11.1,8-10.9Zm0,0-8,10.9,8,11.1,8-10.9Zm0,0-8,10.9,8,11.1,8-10.9Zm0,0-8,10.9,8,11.1,8-10.9Zm0,0-8,10.9,8,11.1,8-10.9Zm0,0-8,10.9,8,11.1,8-10.9Zm0,0-8,10.9,8,11.1,8-10.9Zm0,0-8,10.9,8,11.1,8-10.9ZM386,49H252.37L100,218,243.62,593H370l-34.47-90H283V482h44.47l-6.86-17.92L275,345,386,221.89Zm-53.57,59.83,12.53,23L297,120.37ZM162,258l88,54H172Zm31,62,61.93,38H200Zm33.77,72L222,366.23,264,392ZM317,217l-109,7-20-69v-6H351Zm-40-34.9-8-11.1-8,10.9,8,11.1Zm-8-11.1-8,10.9,8,11.1,8-10.9Zm0,0-8,10.9,8,11.1,8-10.9Zm0,0-8,10.9,8,11.1,8-10.9Zm0,0-8,10.9,8,11.1,8-10.9Zm0,0-8,10.9,8,11.1,8-10.9Zm0,0-8,10.9,8,11.1,8-10.9Z"/><polygon class="cls-3" points="277.04 182.1 269.07 193 261.11 181.9 269.07 171 277.04 182.1"/><polygon class="cls-1" points="277.04 182.1 269.07 193 261.11 181.9 269.07 171 277.04 182.1"/><polygon class="cls-2" points="995.93 457 1003.89 467.9 995.93 479 987.96 468.1 995.93 457"/><path class="cls-2" d="M1158.83,529,1173,492,1020.63,323H999v15h-8V323H973v59h-8V323H948v44h-8V323H924v29h-8V323H887V710.44l96,33L887,769v98h142.38l26.43-69H1029V785h31.78l4.22-11h-28v-5h29.91l5.36-14H1052v-5h22.19l51.32-134H1084v-5h43.42l9.58-25h-39V561h48.57l4.22-11H1107v-5h45.7l4.21-11H1123v-5Zm-136.46-5.36-40.84-3-20.29-1.49-4.85-18.59-16.84-64.49,74-23.47,48.71,59.76-5.81,7.46L1038.41,503Z"/><polygon class="cls-3" points="1003.89 467.9 995.93 479 987.96 468.1 995.93 457 1003.89 467.9"/><polygon class="cls-1" points="1003.89 467.9 995.93 479 987.96 468.1 995.93 457 1003.89 467.9"/><path class="cls-2" d="M1375.72,374H1326l47.73-29.29L1230.63,186H1116.57l35,24.58L1097,222.32V358.89L1208,482l-45.61,119.08L1207,616.4l-56.2,15L1113,730h81.32l-5.93-14.58L1208.24,730h20.87l-15.7-38.58,31.79,23.38,7.1-18.53-8.89-21.85,13.46,9.9ZM1136,349.42l62.4-107.5L1284.89,397Z"/><polygon class="cls-1" points="1193.96 323.1 1201.93 334 1209.89 322.9 1201.93 312 1193.96 323.1"/><path class="cls-2" d="M1421.93,171l-8,11.1,8,10.9,8-11.1Zm0,0-8,11.1,8,10.9,8-11.1Zm0,0-8,11.1,8,10.9,8-11.1Zm0,0-8,11.1,8,10.9,8-11.1Zm16.7-122H1305V221.89L1416,345l-45.61,119.08L1363.53,482H1408v21h-52.51L1321,593h126.36L1591,218Zm-80.06,59.83L1394,120.37,1346,131.86ZM1374,217l-34-68h163v6l-20,69Zm90.23,175H1427l42-25.77ZM1491,358h-54.89L1498,320Zm-50-46,88-54-10,54Zm-27-129.9,8,10.9,8-11.1-8-10.9Zm8-11.1-8,11.1,8,10.9,8-11.1Zm0,0-8,11.1,8,10.9,8-11.1Zm0,0-8,11.1,8,10.9,8-11.1Zm0,0-8,11.1,8,10.9,8-11.1Z"/><polygon class="cls-3" points="1429.89 181.9 1421.93 193 1413.96 182.1 1421.93 171 1429.89 181.9"/><polygon class="cls-1" points="1429.89 181.9 1421.93 193 1413.96 182.1 1421.93 171 1429.89 181.9"/><polygon class="cls-1" points="948 935 832 935 832 297.82 744.8 297.82 770.4 258 859 258 859 892.69 920.8 892.69 948 935"/><polygon class="cls-1" points="0 204.79 173.19 657 344.88 657 344.88 639.86 221.02 639.86 56.88 211.29 231.02 18.14 344.88 18.14 344.88 1 183.74 1 0 204.79"/></g></g></svg>