<svg xmlns="http://www.w3.org/2000/svg" viewBox="0 0 1119.14 141.42"><defs><style>.cls-1{fill:#4fc3f7;}.cls-2{fill:#00e5ff;}.cls-3{fill:#84ffff;}</style></defs><title>meteor</title><g id="Слой_2" data-name="Слой 2"><g id="фон"><path class="cls-1" d="M1119.14,70.39,79,.5A66.54,66.54,0,0,0,72.14,0l-.56,0V0l-.87,0A70.71,70.71,0,1,0,85.64,139.83Z"/><path class="cls-2" d="M959.72,71,103.65,13.44c-1.84-.22-3.72-.34-5.61-.38l-.46,0v0l-.72,0a58.2,58.2,0,1,0,12.29,115.08Z"/><path class="cls-3" d="M719.58,70.73,123.8,30.7c-1.28-.14-2.58-.23-3.9-.26l-.32,0h-.5a40.5,40.5,0,1,0,8.55,80.09Z"/></g></g></svg>