<svg xmlns="http://www.w3.org/2000/svg" viewBox="0 0 1119.14 141.42"><defs><style>.cls-1{fill:#4fc3f7;}.cls-2{fill:#00e5ff;}.cls-3{fill:#84ffff;}</style></defs><title>meteor2</title><g id="Слой_2" data-name="Слой 2"><g id="Слой_2-2" data-name="Слой 2"><path class="cls-1" d="M1119.14,70.38,105.37,138.5l-19.74,1.33A70.72,70.72,0,0,1,0,71.77c0-.35,0-.71,0-1.06A70.71,70.71,0,0,1,70.71,0l.87,0V0l.56,0Q75.59.1,79,.49Z"/><path class="cls-2" d="M959.72,71,68.25,13.44c-1.92-.22-3.87-.34-5.84-.38l-.48,0v0l-.75,0C27.71,13,.58,39.09.58,71.23s27.13,58.19,60.6,58.19A63.27,63.27,0,0,0,74,128.11Z"/><path class="cls-3" d="M719.58,70.73,51.31,30.7c-1.44-.15-2.91-.23-4.38-.26l-.36,0H46C20.92,30.42.58,48.55.58,70.92s20.34,40.5,45.43,40.5a51.13,51.13,0,0,0,9.59-.91Z"/></g><g id="Слой_3" data-name="Слой 3"><path class="cls-3" d="M105.58,138.42l-.21.08-19.74,1.33A70.72,70.72,0,0,1,0,71.77l.57-.35,148,34s-75,15-70,22S105.58,138.42,105.58,138.42Z"/><path class="cls-3" d="M105.58,3.42l-.21-.08L85.63,2A70.72,70.72,0,0,0,0,70.07l.57.35,148-34s-75-15-70-22S105.58,3.42,105.58,3.42Z"/></g></g></svg>