<svg xmlns="http://www.w3.org/2000/svg" xmlns:xlink="http://www.w3.org/1999/xlink" viewBox="0 0 896.52 519.66"><defs><style>.cls-1{fill:#2a6291;}.cls-2{fill:#1d4866;}.cls-3{fill:#357baa;}.cls-4{fill:url(#Безымянный_градиент_35);}</style><linearGradient id="Безымянный_градиент_35" y1="263.35" x2="896.52" y2="263.35" gradientUnits="userSpaceOnUse"><stop offset="0" stop-color="#4db6ac"/><stop offset="0.25" stop-color="#64ffda"/><stop offset="0.5" stop-color="#84ffff"/><stop offset="0.75" stop-color="#00e5ff"/><stop offset="1" stop-color="#4fc3f7"/></linearGradient></defs><title>saturn-gradient-blue</title><g id="Слой_2" data-name="Слой 2"><g id="Слой_3" data-name="Слой 3"><circle class="cls-1" cx="442.98" cy="260.16" r="259.5"/><path class="cls-2" d="M702.48,260.16c0,143.32-116.18,259.5-259.5,259.5-76,0-146-32.95-193.5-85,45.1,37.89,105,61,168.5,61,143.32,0,259.5-116.18,259.5-259.5,0-67.33-21-124.38-63-170.5C671.15,113.26,702.48,180.36,702.48,260.16Z"/><path class="cls-3" d="M207.16,328.84c-29.3-140.29,60.68-277.77,201-307.07,76.62-16,145.56-2,203.35,41.89C552,9,474.7-11.54,389.56,6.24,249.27,35.54,159.29,173,188.59,313.31c10.36,49.59,19.07,68.25,41.31,93.92C215.3,386.78,215.64,369.43,207.16,328.84Z"/><path class="cls-4" d="M893.48,146.66c-17.12-47.1-111.44-82.73-270-74.08a258.41,258.41,0,0,1,39.22,47.89c58.49,1,96.71,12,101.7,32.88,10.51,44-130.26,115.29-314.42,159.29s-342,44.05-352.48.08c-5.37-22.48,28.8-52.11,88.1-81.59a258,258,0,0,1,13.85-59.56C51.59,234.93-10.68,308.77,1.48,359.66c16.69,69.83,213.51,135.89,506,66S917.52,212.79,893.48,146.66Z"/></g></g></svg>