<?xml version="1.0" encoding="utf-8"?>
<!-- Generator: Adobe Illustrator 23.1.0, SVG Export Plug-In . SVG Version: 6.00 Build 0)  -->
<svg version="1.1" id="Слой_1" xmlns="http://www.w3.org/2000/svg" xmlns:xlink="http://www.w3.org/1999/xlink" x="0px" y="0px"
	 viewBox="0 0 1474 374" style="enable-background:new 0 0 1474 374;" xml:space="preserve">
<style type="text/css">
	.st0{fill:#4DB6AC;}
	.st1{display:none;fill:#4FC3F7;}
	.st2{fill:#4FC3F7;}
	.st3{fill:#64FFDA;}
	.st4{fill:#00E5FF;}
	.st5{fill:#84FFFF;}
</style>
<title>ship</title>
<g>
	<g id="фон">
		<path class="st0" d="M316,309v-19h58v-5h-29v-7h29v-42h-86v-18h62.1v-58H215v-9h135.1v-6H302v-8h48.1v-19.1H374V42.7h-49.2V0H150
			v15h89v10h-89v4h45v6h-45v52h-14v34h37v9h-37v128h-13V111H63v49h-5v-49H45v-9h78V87h-15V26.8h-0.9V0H93v42h-9V0H0v61.5h28.2v73.1
			H0V196h93v15H76v36h-9v-36h-4v25h-9v-25H0v116h39.8v47H185v-52h9v52h9.3v-26h0.7V248h12v100h5v-66h7v66h79.5v26H374v-65H316z
			 M341,43h10v26h-10V43z M266,54h36v36h-36V54z M31,25h23v23H31V25z M158,339H71v-30h87V339z M187,213h-15v-41h15V213z M210,56h11
			v65h-11V56z M256,211h-28v-28h28V211z M283,281h-23v-23h23V281z"/>
		<rect x="276" y="64" class="st1" width="17" height="17"/>
		<g id="lines">
			<rect x="412.9" y="3" class="st0" width="507.9" height="19"/>
			<rect x="412.9" y="336.2" class="st2" width="316.9" height="19"/>
			<rect x="776.5" y="336.2" class="st2" width="113.8" height="19"/>
			<rect x="941.1" y="336.2" class="st2" width="37.2" height="19"/>
			<rect x="1026.4" y="336.2" class="st2" width="19" height="19"/>
			<rect x="1091.4" y="336.2" class="st2" width="90.1" height="19"/>
			<rect x="412.9" y="62.6" class="st3" width="443.5" height="37.2"/>
			<rect x="412.9" y="261" class="st4" width="241.1" height="37.2"/>
			<rect x="706.1" y="261" class="st4" width="434.1" height="37.2"/>
			<rect x="1192.3" y="261" class="st4" width="29.8" height="37.2"/>
			<rect x="1270.2" y="261" class="st4" width="140.8" height="37.2"/>
			<rect x="900.4" y="62.6" class="st3" width="37.2" height="37.2"/>
			<rect x="979" y="62.6" class="st3" width="161.2" height="37.2"/>
			<rect x="1180.1" y="62.6" class="st3" width="132.7" height="37.2"/>
			<rect x="412.9" y="145.9" class="st5" width="518" height="69.8"/>
			<rect x="980.3" y="145.9" class="st5" width="249.9" height="69.8"/>
			<rect x="1280.3" y="145.9" class="st5" width="106.3" height="69.8"/>
			<rect x="1436.8" y="145.9" class="st5" width="37.2" height="69.8"/>
			<rect x="960.7" y="3" class="st0" width="269.5" height="19"/>
			<rect x="1270.2" y="3" class="st0" width="116.5" height="19"/>
		</g>
	</g>
</g>
</svg>
