<svg xmlns="http://www.w3.org/2000/svg" xmlns:xlink="http://www.w3.org/1999/xlink" viewBox="0 0 114.5 66.39"><defs><style>.cls-1{fill:#48484f;}.cls-2{fill:#35353a;}.cls-3{fill:#585860;}.cls-4{fill:url(#Безымянный_градиент);}</style><linearGradient id="Безымянный_градиент" x1="-163.76" y1="374.51" x2="-49.26" y2="374.51" gradientTransform="matrix(1, 0, 0, -1, 163.76, 408.14)" gradientUnits="userSpaceOnUse"><stop offset="0" stop-color="#4db6ac"/><stop offset="0.25" stop-color="#64ffda"/><stop offset="0.5" stop-color="#84ffff"/><stop offset="0.75" stop-color="#00e5ff"/><stop offset="1" stop-color="#4fc3f7"/></linearGradient></defs><title>sp</title><g id="Слой_2" data-name="Слой 2"><g id="Слой_1-2" data-name="Слой 1"><g id="Слой_6" data-name="Слой 6"><g id="Слой_3" data-name="Слой 3"><circle class="cls-1" cx="56.57" cy="33.24" r="33.15" transform="translate(-6.93 49.74) rotate(-45)"/><path class="cls-2" d="M89.71,33.24A33.15,33.15,0,0,1,56.62,66.38,33.57,33.57,0,0,1,31.9,55.52a33.71,33.71,0,0,0,21.52,7.8A33.15,33.15,0,0,0,86.57,30.17h0c0-8.6-2.68-15.89-8-21.78C85.71,14.47,89.71,23,89.71,33.24Z"/><path class="cls-3" d="M26.45,42A33.14,33.14,0,0,1,52.11,2.79h0c9.78-2,18.59-.26,26,5.35-7.6-7-17.47-9.61-28.35-7.34A33.14,33.14,0,0,0,24.1,40c1.33,6.34,2.44,8.72,5.28,12C27.49,49.41,27.53,47.19,26.45,42Z"/><path class="cls-4" d="M114.11,18.74c-2.19-6-14.23-10.57-34.48-9.46a33.37,33.37,0,0,1,5,6.11c7.47.13,12.35,1.54,13,4.2C99,25.21,81,34.32,57.46,39.94s-43.68,5.63-45,0c-.68-2.87,3.55-6.66,11.13-10.42a33.14,33.14,0,0,1,1.77-7.61C6.47,30-1.36,39.43.19,45.91c2.14,8.92,27.28,17.36,64.64,8.44S117.18,27.19,114.11,18.74Z"/></g></g></g></g></svg>