<svg xmlns="http://www.w3.org/2000/svg" viewBox="0 0 1920 1080"><defs><style>.cls-1{fill:#4db6ac;}.cls-2,.cls-4{fill:#2a2a2e;}.cls-3{fill:none;}.cls-3,.cls-4{stroke:#4db6ac;stroke-miterlimit:10;stroke-width:8px;}</style></defs><title>workspace</title><g id="Слой_2" data-name="Слой 2"><g id="Слой_1-2" data-name="Слой 1"><path class="cls-1" d="M0,0V1080H1920V0ZM1740,656H180V102H1740Z"/><path class="cls-2" d="M1304.65,832.68a1093.91,1093.91,0,0,0-694.8,1.51Q534.82,754.51,463,686a1093.65,1093.65,0,0,1,993,0Q1382.23,753.41,1304.65,832.68Z"/><path class="cls-3" d="M1304.65,832.68a1093.91,1093.91,0,0,0-694.8,1.51Q534.82,754.51,463,686a1093.65,1093.65,0,0,1,993,0Q1382.23,753.41,1304.65,832.68Z"/><polygon class="cls-4" points="1078.15 728 1077.7 854 842.66 854 843.21 728 739.85 728 776.87 938 838.82 938 853.24 938 1067.12 938 1079.5 938 1143.48 938 1180.51 728 1078.15 728"/><polygon class="cls-1" points="928.59 496.93 955.58 496.93 955.58 662.93 926.54 662.93 892.68 548.49 928.59 496.93"/><polygon class="cls-1" points="1027.51 548.49 993.65 662.93 964.61 662.93 964.61 496.93 991.6 496.93 1027.51 548.49"/><rect class="cls-4" x="836" y="611" width="247" height="246.96"/><rect class="cls-4" x="911" y="938" width="98" height="49"/></g></g></svg>